<svg xmlns="http://www.w3.org/2000/svg" viewBox="0 0 164.85 164.99"><g id="Шар_2" data-name="Шар 2"><g id="Шар_1-2" data-name="Шар 1"><path d="M158.38,82.5v76.05H146.91c-10.79,0-11.47,0-11.24-.58a12.65,12.65,0,0,0,0-7.84c-.17-.41.12-.54,1.7-.7a11,11,0,0,0,9-6.45,8.7,8.7,0,0,0,.9-4.41,10.25,10.25,0,0,0-.51-3.61l-.55-1.2,1.74-.8a11.33,11.33,0,0,0,5.29-5.32,8.63,8.63,0,0,0,.83-4.54,8.42,8.42,0,0,0-1-4.87l-1.06-2.12V74.47l-.74-.84A3.11,3.11,0,0,0,145.82,75c-.2.74-.33,7.86-.33,19.24v18.08l-1.12-.13a4.71,4.71,0,0,1-1.13-.2l.48-1.61a9,9,0,0,0-.16-6.09,11.67,11.67,0,0,0-5.7-6.57c-1.61-.78-2.29-.9-5.61-1l-3.8-.13,1.83-1.19a15.5,15.5,0,0,0,6.9-15.24,15.66,15.66,0,0,0-12.89-12.89c-10-1.71-19.21,7.54-17.53,17.53a15.72,15.72,0,0,0,7,10.63l1.9,1.22H98.45V66.06c0-28.87,0-30.64.58-30.81,5.12-1.74,9-5.54,10.4-10l.39-1.35h24.3l.39,1.35c1.35,4.51,5.28,8.31,10.44,10.05.48.17.54.68.54,4.93,0,6.93.58,8.32,3.45,8.32a2.33,2.33,0,0,0,2.23-.9c.77-.91.77-.94.77-8.64V31.19l-.94-.93a2.63,2.63,0,0,0-2-.94c-4.6,0-8.12-3.41-8.79-8.47a5.37,5.37,0,0,0-1-2.42l-.74-.87h-33l-.74.87a5.37,5.37,0,0,0-1,2.42c-.67,5.06-4.19,8.47-8.79,8.47a2.63,2.63,0,0,0-2,.94l-.94.93V96.67H85.56V6.45h72.82Z" fill="#0057b8"/><path d="M79.11,25.1v6.09l-1.32.23a5.27,5.27,0,0,0-2.16,1c-.84.74-.87.83-.87,4.41,0,3.35-.06,3.74-.87,5.09a8.6,8.6,0,0,1-4.61,4c-2.19,1-3,1.84-3.06,3.19,0,.65,10.83,41.57,12.44,47,.16.52-.13.58-3.06.58H72.38l-.33-1.22c-.16-.64-.9-3.51-1.64-6.35S69,83.62,68.8,83.2c-.32-.77-15-55.42-15.21-56.58-.1-.55,1-.9,9.89-3.29,8.45-2.29,15.21-4.16,15.57-4.28,0,0,.06,2.7.06,6.05" fill="#0057b8"/><path d="M65.58,96.19c1.13,4.42,1.45,5.29,2.29,6l.93.9h32.64c30.42,0,32.68,0,33.71.58a4.38,4.38,0,0,1,0,7.86c-1,.52-2.55.58-18.27.58H99.67l-1.09,1.1a2.89,2.89,0,0,0-1.1,2.12,2.94,2.94,0,0,0,1.1,2.13l1.09,1.1H122c21.72,0,22.37,0,23.4.64a4.43,4.43,0,0,1,0,7.74c-1,.61-1.68.64-23.4.64H99.67l-1.09,1.1c-1.49,1.48-1.49,2.77,0,4.25l1.09,1.09h18.82c20.72,0,20.14-.06,21.65,2a4.73,4.73,0,0,1,0,5c-1.51,2.09-.93,2-21.65,2H99.67l-1.09,1.09a2.61,2.61,0,0,0,0,4.26l1.09,1.09h13.24c14.6,0,14.8,0,16.15,2a4.45,4.45,0,0,1-2.19,6.73c-.84.26-10.89.33-33.1.26-31.58-.1-31.9-.1-33.35-.77a41.73,41.73,0,0,1-5.86-4.51l-4.45-3.81v-44.5l7-7c3.84-3.87,7-7,7.06-6.93s.68,2.39,1.42,5.22Z" fill="#fff000"/><path d="M21.75,118.43c0,20.2,0,20.23,1.58,21.1a4.45,4.45,0,0,0,3.29,0c1.58-.87,1.58-.9,1.58-21.1V99.57h6.44c7,0,7.8.17,8.57,1.65s.68,54.33,0,55.68c-.87,1.65-1,1.65-18.24,1.65s-17.36,0-18.23-1.65c-.65-1.29-.65-54.49,0-55.68.83-1.48,1.51-1.61,8.5-1.65h6.51Z" fill="#fff000"/><path d="M23.4,146.11a3.22,3.22,0,0,0,1.57,6,3.41,3.41,0,0,0,3.23-3.19,3.24,3.24,0,0,0-4.8-2.8m124-87.72a3.25,3.25,0,0,0-.42,5.38,2.19,2.19,0,0,0,2.16.58c3.61-.48,3.77-5.7.19-6.22A4.28,4.28,0,0,0,147.43,58.39ZM158.38,82.5v76.05H146.91c-10.79,0-11.47,0-11.24-.58a12.65,12.65,0,0,0,0-7.84c-.17-.41.12-.54,1.7-.7a11,11,0,0,0,9-6.45,8.7,8.7,0,0,0,.9-4.41,10.25,10.25,0,0,0-.51-3.61l-.55-1.2,1.74-.8a11.33,11.33,0,0,0,5.29-5.32,8.63,8.63,0,0,0,.83-4.54,8.42,8.42,0,0,0-1-4.87l-1.06-2.12V74.47l-.74-.84A3.11,3.11,0,0,0,145.82,75c-.2.74-.33,7.86-.33,19.24v18.08l-1.12-.13a4.71,4.71,0,0,1-1.13-.2l.48-1.61a9,9,0,0,0-.16-6.09,11.67,11.67,0,0,0-5.7-6.57c-1.61-.78-2.29-.9-5.61-1l-3.8-.13,1.83-1.19a15.5,15.5,0,0,0,6.9-15.24,15.66,15.66,0,0,0-12.89-12.89c-10-1.71-19.21,7.54-17.53,17.53a15.72,15.72,0,0,0,7,10.63l1.9,1.22H98.45V66.06c0-28.87,0-30.64.58-30.81,5.12-1.74,9-5.54,10.4-10l.39-1.35h24.3l.39,1.35c1.35,4.51,5.28,8.31,10.44,10.05.48.17.54.68.54,4.93,0,6.93.58,8.32,3.45,8.32a2.33,2.33,0,0,0,2.23-.9c.77-.91.77-.94.77-8.64V31.19l-.94-.93a2.63,2.63,0,0,0-2-.94c-4.6,0-8.12-3.41-8.79-8.47a5.37,5.37,0,0,0-1-2.42l-.74-.87h-33l-.74.87a5.37,5.37,0,0,0-1,2.42c-.67,5.06-4.19,8.47-8.79,8.47a2.63,2.63,0,0,0-2,.94l-.94.93V96.67H85.56V6.45h72.82ZM79.11,25.1v6.09l-1.32.23a5.27,5.27,0,0,0-2.16,1c-.84.74-.87.83-.87,4.41,0,3.35-.06,3.74-.87,5.09a8.6,8.6,0,0,1-4.61,4c-2.19,1-3,1.84-3.06,3.19,0,.65,10.83,41.57,12.44,47,.16.52-.13.58-3.06.58H72.38l-.33-1.22c-.16-.64-.9-3.51-1.64-6.35S69,83.62,68.8,83.2c-.32-.77-15-55.42-15.21-56.58-.1-.55,1-.9,9.89-3.29,8.45-2.29,15.21-4.16,15.57-4.28C79.08,19,79.11,21.75,79.11,25.1Zm0,34.26V72.67L76.18,62,73.25,51.4,74,51a26.84,26.84,0,0,0,2.84-2.64c1.16-1.2,2.12-2.16,2.19-2.2S79.11,52.08,79.08,59.36Zm46.72,15a8.9,8.9,0,0,1,4.06,4,6.59,6.59,0,0,1,.94,4.13,6.57,6.57,0,0,1-.94,4.12,9,9,0,0,1-15.79,0,6.64,6.64,0,0,1-.93-4.12,7.6,7.6,0,0,1,2-5.71,10.32,10.32,0,0,1,4.7-3,11.22,11.22,0,0,1,6,.65ZM65.58,96.19c1.13,4.42,1.45,5.29,2.29,6l.93.9h32.64c30.42,0,32.68,0,33.71.58a4.38,4.38,0,0,1,0,7.86c-1,.52-2.55.58-18.27.58H99.67l-1.09,1.1a2.89,2.89,0,0,0-1.1,2.12,2.94,2.94,0,0,0,1.1,2.13l1.09,1.1H122c21.72,0,22.37,0,23.4.64a4.43,4.43,0,0,1,0,7.74c-1,.61-1.68.64-23.4.64H99.67l-1.09,1.1c-1.49,1.48-1.49,2.77,0,4.25l1.09,1.09h18.82c20.72,0,20.14-.06,21.65,2a4.73,4.73,0,0,1,0,5c-1.51,2.09-.93,2-21.65,2H99.67l-1.09,1.09a2.61,2.61,0,0,0,0,4.26l1.09,1.09h13.24c14.6,0,14.8,0,16.15,2a4.45,4.45,0,0,1-2.19,6.73c-.84.26-10.89.33-33.1.26-31.58-.1-31.9-.1-33.35-.77a41.73,41.73,0,0,1-5.86-4.51l-4.45-3.81v-44.5l7-7c3.84-3.87,7-7,7.06-6.93s.68,2.39,1.42,5.22ZM21.75,118.43c0,20.2,0,20.23,1.58,21.1a4.45,4.45,0,0,0,3.29,0c1.58-.87,1.58-.9,1.58-21.1V99.57h6.44c7,0,7.8.17,8.57,1.65s.68,54.33,0,55.68c-.87,1.65-1,1.65-18.24,1.65s-17.36,0-18.23-1.65c-.65-1.29-.65-54.49,0-55.68.83-1.48,1.51-1.61,8.5-1.65h6.51Zm59-118c-1.42.81-1.62,1.61-1.65,7v5L63.58,16.6c-13.5,3.61-15.69,4.28-16.44,5a2.7,2.7,0,0,0-.9,1.84c0,.52,3.58,14.28,7.93,30.52L62.1,83.56l-6.83,6.83L48.4,97.25l-.93-1.09a11.15,11.15,0,0,0-2.77-2l-1.84-.9H25c-17.49,0-17.91,0-19.36.68A9.69,9.69,0,0,0,.9,98.54L0,100.38v28.68c0,28.49,0,28.68.68,30.16a9.69,9.69,0,0,0,4.57,4.71l1.84.9H42.86l1.84-.9a9.34,9.34,0,0,0,4.51-4.64A4,4,0,0,1,50,157.9a33.43,33.43,0,0,1,2.74,2.26,25.63,25.63,0,0,0,4.25,3c3.9,1.9,1.07,1.8,55.43,1.8s51.2.1,52-1.77C165,162,165,3,164.44,1.77,163.6-.1,165.79,0,121.91,0,89,0,81.4.1,80.75.45Z"/></g></g></svg>