<svg xmlns="http://www.w3.org/2000/svg" viewBox="0 0 201.63 137.02"><g id="Шар_2" data-name="Шар 2"><g id="Шар_1-2" data-name="Шар 1"><path d="M63.54,18.91c-.3,4.32,3.15,4.29,6.95,5.52a80.77,80.77,0,0,0,10,2.65C88.33,28.57,96,27.73,98,20.75c1.24-4.41-1-8,4-8.65a32.9,32.9,0,0,0,10.13-2.42c2.5-1,6.35-3.12,9-3.53,7.42-1.11,6.58,13.24,8.65,15.71,2.44,2.88,6,2.19,8.28,4.32,2.08,1.93,1.29,5.74,4.12,8.49,5.14,5,13,4.2,19.2,1.45,3.95-1.73,5.91,1.07,8.17,2.68,8.11,5.78,17.83-.23,21,2.17,1,.88.75.9,1.1,2.48.23,1,.45,1.89.7,2.89a45,45,0,0,1,1.39,5.58l-181.83,0c1.34-2.77,7-6.85,9-8.56C34.5,31.43,23.3,22.13,25.45,18.79a7.84,7.84,0,0,1,3.35-2.57C35,13.64,42.25,15,48.42,17c4.45,1.4,4.69,2.48,7.89-.4,0-4.25-2.2-4.43-9.7-6.45-13.42-3.59-28.78,1-27.69,10.72.25,2.18,1.56,4,2.2,6.11,2.59,8.69-5.14,12-8.23,15.11-4.72,4.75-7.62,7.24-10.79,14A25.08,25.08,0,0,0,0,62.49v5.74c1.52,8,9.63,12.93,19.53,15.42,5.2,1.31,8.69,1.5,15.14,1.43C43.06,85,51,78.41,59.17,76.9c6.16-1.14,8.1-.13,12.45,3.1,4.1,3,14.14,12.6,14.62,18.46-4,0-9.11-1.48-11.1,1.49-2.4,3.57,1.78,6.17-2,11-1.89,2.37-4.6,4.51-3.7,9.92a9,9,0,0,0,6.76,7C82,129.1,91,124.34,95.59,120.4a7.34,7.34,0,0,0,1.46-1.69c6.28-8.14,5.68-15.63,8.1-16.32,1.88.16,2.47,1.52,3.77,2.54,2.91,2.28,4.33,4.07,8.29,5.1,3,.78,2.92.24,5.66.24-.07.06-.19.06-.22.17s-.18.14-.23.17a3.92,3.92,0,0,1-.73.45c-3.52,2-7.28,4.58-4.73,9.45s8.84,2.44,11,7.14c.84,1.86.55,3.82,2.56,6.49,3.27,4.37,8.56,3.36,12-.33,3.06-3.31,3.09-6.45,9.58-8.53s16.3.48,17.95-9.27c.56-3.35-1.56-6.88-4.61-8.49-5.77-3.06-11.9,2.9-19.29,1.18.17-2,1.41-3,2.69-4,3-2.36,5.68-3,8.88-4.51,2.3-1.09,2.61-1.16,2.61-4.28-2.61-2.67-3.4-2.31-9.64.78-7.22,3.57-15,10.94-8.28,16.54,7.23,6,23.26-5.34,21.49,2.49-1.27,5.61-15.62-1.56-24.38,11.94-5.45,8.4-3.93-1.09-8.1-5.4-3.09-3.2-4.69-2.58-8.82-4.5L125,116c1.12-.57,2.08-1,3.2-1.53,2-1,4.1-2.49,4.4-5.06a5,5,0,0,0-3.38-5.49c-3.42-1.27-5.36.1-8.55.51-7.36-.18-10.24-10-17.14-7.94-6.25,1.83-6.24,10.75-9.64,16.34-3.58,5.89-13.5,9.92-16.55,9.09a3.13,3.13,0,0,1-1.89-4.27c1.53-4.33,5.58-2.06,5.11-13.59,3.44.35,5.89,1.14,8.88-.79,2.31-1.49,3.27-3.82,2.4-7.29-1.11-4.38-5.59-10.37-7.79-12.69-7.91-8.32-15.26-15.19-27.36-12-13.07,3.45-15.78,10-32.47,7.24A34.24,34.24,0,0,1,9.51,72.8C4,69,6.07,64,7.79,57.81H195.34c.81,7,.5,8.26-4.19,11.26-5.49,3.52-10.44,5.2-12.43,11.61-1.13,3.62,1.07,4.82-7.85,8.29-2.73,1.06-3.5,1.38-3.42,4.76,1.39,1.07,1.26,2.09,4.08,1.45s9.16-4,11-6.73c4.27-6.2-2.6-5.73,10.27-13.35,5.62-3.33,8.14-6.45,8.79-10.47v-5a73.17,73.17,0,0,0-2-9.18c-3.9-14.86-2.71-17.28-18.44-15.28-11.4,1.45-8.94-5.42-17.08-5.88-3.71-.21-14.67,6.82-18,.68-.94-1.71-.89-5.28-3.83-8a20.8,20.8,0,0,0-8-3.83c0-7.41-3.33-16.89-11.12-18-3.89-.57-8.57,2-11.27,3.13a52.13,52.13,0,0,1-5.42,2.06c-4.81,1.47-12.26-.4-13.79,8.27-.7,4,2.94,12.62-18.61,5.72-5.83-1.87-8.36-3.92-10.54-.35" fill-rule="evenodd"/><path d="M63.54,18.91c-1.47-.64-5.47-2.23-7.23-2.36-3.2,2.88-3.44,1.8-7.89.4C42.25,15,35,13.64,28.8,16.22a7.84,7.84,0,0,0-3.35,2.57c-2.15,3.34,9.05,12.64-4.58,24.53-2,1.71-7.63,5.79-9,8.56l181.83,0a45,45,0,0,0-1.39-5.58c-.25-1-.47-1.84-.7-2.89-.35-1.58-.08-1.6-1.1-2.48-3.18-2.4-12.9,3.61-21-2.17-2.26-1.61-4.22-4.41-8.17-2.68-6.22,2.75-14.06,3.55-19.2-1.45-2.83-2.75-2-6.56-4.12-8.49-2.29-2.13-5.84-1.44-8.28-4.32-2.07-2.47-1.23-16.82-8.65-15.71-2.69.41-6.54,2.51-9,3.53a32.9,32.9,0,0,1-10.13,2.42c-5,.62-2.75,4.24-4,8.65-2,7-9.62,7.82-17.51,6.33a80.77,80.77,0,0,1-10-2.65c-3.8-1.23-7.25-1.2-6.95-5.52" fill="#0057b8" fill-rule="evenodd"/><path d="M96.86,57.81h98.48c.81,7,.5,8.26-4.19,11.26-5.49,3.52-10.44,5.2-12.43,11.61-1.13,3.62,1.07,4.82-7.85,8.29-2.73,1.06-3.5,1.38-3.42,4.76-2.48.53-4.9,1.72-7.17,2.17-2.61-2.67-3.4-2.31-9.64.78-7.22,3.57-15,10.94-8.28,16.54,7.23,6,23.26-5.34,21.49,2.49-1.27,5.61-15.62-1.56-24.38,11.94-5.45,8.4-3.93-1.09-8.1-5.4-3.09-3.2-4.69-2.58-8.82-4.5L125,116c1.12-.57,2.08-1,3.2-1.53,2-1,4.1-2.49,4.4-5.06a5,5,0,0,0-3.38-5.49c-3.42-1.27-5.36.1-8.55.51-7.36-.18-10.24-10-17.14-7.94-6.25,1.83-6.24,10.75-9.64,16.34-3.58,5.89-13.5,9.92-16.55,9.09a3.13,3.13,0,0,1-1.89-4.27c1.53-4.33,5.58-2.06,5.11-13.59,3.44.35,5.89,1.14,8.88-.79,2.31-1.49,3.27-3.82,2.4-7.29-1.11-4.38-5.59-10.37-7.79-12.69-7.91-8.32-15.26-15.19-27.36-12-13.07,3.45-15.78,10-32.47,7.24A34.24,34.24,0,0,1,9.51,72.8C4,69,6.07,64,7.79,57.81Z" fill="#fff000" fill-rule="evenodd"/></g></g></svg>