<svg xmlns="http://www.w3.org/2000/svg" viewBox="0 0 164.9 164.9"><g id="Шар_2" data-name="Шар 2"><g id="Шар_1-2" data-name="Шар 1"><path d="M27.44,39C26.51,39.54.31,72.35.09,73.28a3.66,3.66,0,0,0,0,1.58c.22.87,79.3,88.59,80.68,89.49a2.82,2.82,0,0,0,3.36,0c1.38-.9,80.46-88.62,80.69-89.49a3.82,3.82,0,0,0,0-1.58c-.23-.93-26.43-33.74-27.36-34.25s-109-.58-110,0"/><path d="M80.87.39c-1.58.87-1.61,1.26-1.64,12.38,0,8.41.1,10.56.45,11.31a3.21,3.21,0,0,0,5.54,0c.61-1.2.68-21,.07-22.37A3.25,3.25,0,0,0,80.87.39"/><path d="M48.65,6.84a3.16,3.16,0,0,0-1.2,4.31c.78,1.49,13.8,14.18,14.8,14.41a3.2,3.2,0,0,0,3.93-4c-.23-1-12.92-14-14.41-14.75a3.16,3.16,0,0,0-3.12,0"/><path d="M112.9,7c-1.74,1.09-14,13.66-14.18,14.59a3.22,3.22,0,0,0,4,4c1-.23,14-12.92,14.76-14.41a3.15,3.15,0,0,0-1.2-4.31A3,3,0,0,0,112.9,7"/><path d="M153.12,78.7c-2.74,3.19-59.23,65.54-59.29,65.48s6.54-15.12,14.66-33.48l14.72-33.42h31.17Z" fill="#fff000"/><path d="M116,77.5c0,.42-33.32,75.83-33.51,75.83S48.94,77.92,48.94,77.5c0-.12,15.08-.22,33.51-.22s33.51.1,33.51.22" fill="#fff000"/><path d="M56.41,110.7c8.12,18.36,14.73,33.44,14.67,33.48S14.33,81.73,11.75,78.73l-1.22-1.45H41.69Z" fill="#fff000"/><path d="M143.36,56.2c4.86,6.13,9.47,11.93,10.24,12.89L155,70.83H138.94l-16,0-6.76-11.31c-3.71-6.22-7.19-12-7.67-12.86l-.94-1.58,13.5,0h13.47Z" fill="#0057b8"/><path d="M107.65,57.88l7.67,12.79-16.43.1c-9.06,0-23.82,0-32.87,0l-16.44-.1,7.67-12.79,7.64-12.79H100Z" fill="#0057b8"/><path d="M56.45,46.63c-.49.84-3.94,6.64-7.67,12.86L42,70.8l-16,0H9.88l1.42-1.74L21.55,56.2l8.86-11.11H43.88l13.5,0Z" fill="#0057b8"/><path d="M63.37,84.24a3.14,3.14,0,0,0,.07,5.44c1.35.71,25.68.71,27,0a3.21,3.21,0,0,0,0-5.55C89.12,83.5,64.63,83.53,63.37,84.24Z"/><path d="M100.21,84.17a3.23,3.23,0,0,0,1.58,6A3.41,3.41,0,0,0,105,87a3.25,3.25,0,0,0-4.8-2.81"/></g></g></svg>