<svg xmlns="http://www.w3.org/2000/svg" viewBox="0 0 157.25 136.6"><g id="Шар_2" data-name="Шар 2"><g id="Шар_1-2" data-name="Шар 1"><path d="M89.7,5a17,17,0,0,1,8,4.75A18.19,18.19,0,0,1,102,17.26l.21,1.08-5.34.14c-4.57.11-5.62.21-7,.88A12.9,12.9,0,0,0,84,25c-.91,1.82-1,2.31-1.09,7.34l-.13,5.34-1.09-.21a18.19,18.19,0,0,1-7.54-4.22,17,17,0,0,1-4.75-8C66.36,13.38,77.86,1.89,89.7,5" fill="#0057b8"/><path d="M98.64,24.9a22.93,22.93,0,0,0,1.72,5.26l1.29,2.65-.86.53c-1.54,1-2.43,2.11-2.43,3a5.37,5.37,0,0,1-1.94,3.94c-1.07.71-4.54.57-7.54-.29l-1.79-.5L87,33.27c-.07-5.94,0-6.29.75-7.8C89,23.08,90.81,22.26,95,22.26h3.25Z" fill="#fff000"/><path d="M114.75,59.36a8.11,8.11,0,0,1,2.09,3l1,2.24-1.65.7a24.72,24.72,0,0,1-9,2l-2.75,0-.11-1.07a8.22,8.22,0,0,1,4.15-7.37,7.52,7.52,0,0,1,6.28.44" fill="#fff000"/><path d="M81.14,40.15c5.71,1.07,8.75,4.7,12.09,9.22,1.92,2.59,4.29,5.74,7.25,7.21.65.31,1.28.64,1.91,1,1.45.72.55,2.31.1,3.26l0,0,0,0a12.65,12.65,0,0,0-.9,3.3c-.3,1.82-.42,4-2.91,3.47C93,66.51,87.25,61.79,84.08,57c-.31-.47-1.09-1.59-1.63-1.8-.26-.1-.65.21-.82.35a.71.71,0,0,0-.31.91,13.18,13.18,0,0,0,2.23,3.69l1.63,2.13-1.57,2a22.34,22.34,0,0,0-3.31,6.25l-.9,2.83-11.89.11-12.43.07.31-4.17a51.07,51.07,0,0,1,3.15-13.29c3.78-10,11.06-18.15,22.6-16" fill="#fff000" fill-rule="evenodd"/><path d="M82.35,77.4c4,.74,7.73,3.34,9.29,6.41,1.24,2.5,1.52,4.66,1.52,12.67v7.6H82.35v-3.89c0-6-1.59-9.76-5.34-12.46-3.07-2.26-4.76-2.57-14.08-2.57H54.69L55,84.08a21.73,21.73,0,0,0,.3-4v-3H68c7.06,0,13.41.13,14.39.34" fill="#fff000"/><path d="M98.45,108.21c1.36.87,3,4.13,2.68,5.22-.21.63-.94.71-6.2.71-6.72,0-8-.29-10.06-2.42-1.22-1.21-2.44-3.26-2.44-4.06a66.55,66.55,0,0,1,7.42-.2c6.51,0,7.56.08,8.6.75" fill="#fff000"/><path d="M72.9,90.12A8.65,8.65,0,0,1,77.43,94c.54,1.08.67,2.35.81,8.19l.16,6.88,1.21,2.41,1.18,2.42H29.86l.23-2.12c.57-5.5,3.19-13.42,5.54-16.84a12.72,12.72,0,0,1,7.21-4.86c1.75-.44,28.62-.41,30.06.06" fill="#0057b8"/><path d="M125.63,83.52l6.44,14.25-6.06,8L120,113.88h-9.61l1.15-2.23a13.85,13.85,0,0,0,1.53-8.29c-.28-1.55-7.07-29.41-7.55-30.95-.14-.43.31-.56,2.61-.76a37,37,0,0,0,9.74-2.33c.49-.23,1-.33,1.12-.23s3.13,6.64,6.68,14.43" fill="#0057b8"/><path d="M88.77,5.61A15.78,15.78,0,0,1,96.18,10a16.9,16.9,0,0,1,3.9,7l.19,1-4.93.13c-4.22.1-5.18.19-6.47.81a11.83,11.83,0,0,0-5.32,5.22c-.84,1.67-.9,2.12-1,6.76l-.13,4.93-1-.19a16.9,16.9,0,0,1-7-3.9,15.78,15.78,0,0,1-4.38-7.41C67.24,13.38,77.85,2.77,88.77,5.61m9.44,20a20.76,20.76,0,0,0,1.55,4.73l1.16,2.39-.77.48c-1.39.9-2.2,1.9-2.2,2.74a4.82,4.82,0,0,1-1.74,3.55c-1,.64-4.09.51-6.8-.26l-1.61-.45-.09-5.64c-.07-5.35,0-5.67.67-7,1.13-2.16,2.78-2.9,6.51-2.9h2.94Zm-17.33,16c4.25.81,6.89,2.84,11.21,8.67,3.25,4.41,5.32,6.41,7.77,7.64,1,.48,1.83.93,1.9,1a5.21,5.21,0,0,1-.55,1.39A13.78,13.78,0,0,0,100.15,64c-.39,2.38-.39,2.45-1.23,2.29-4.8-1-10.34-5-13.66-10-1.71-2.57-2.9-3.06-4.51-1.77S79.62,57.33,82.42,61l1,1.25-.9,1.16a24.06,24.06,0,0,0-3.55,6.71L78.36,72l-10.86.1-10.89.06.19-2.64a53.47,53.47,0,0,1,3.06-12.89C64.22,45.12,71.63,39.8,80.88,41.54Zm48,20.3c0,8.19,0,8.12-2.67,5.38a7.14,7.14,0,0,1-2.49-5.38,7.24,7.24,0,0,1,2.49-5.41C128.92,53.72,128.89,53.66,128.89,61.84Zm-14.63-2a7.13,7.13,0,0,1,1.84,2.68l.83,2-1.45.61a21.44,21.44,0,0,1-7.86,1.74l-2.41,0-.1-.94a7.22,7.22,0,0,1,3.64-6.48A6.65,6.65,0,0,1,114.26,59.81Zm-75.6,2v2.58H30.93V59.26h7.73Zm51.05,5.93a25.71,25.71,0,0,0,8.41,3.58l2.9.74,3.6,15.56c2.2,9.51,3.61,16.31,3.61,17.4a8.08,8.08,0,0,1-1.8,5.51l-.84.87-.55-1.54a9.76,9.76,0,0,0-5.7-6l-1.22-.41-.2-9c-.16-9.57-.16-9.57-2.06-13.34S89,73.64,85.29,73a2.37,2.37,0,0,1-1.42-.68c-.38-1,2.84-6.48,3.58-6Zm35.41,15.89,6,14-5.61,7.9-5.6,7.89H111l1.07-2.19a14.19,14.19,0,0,0,1.41-8.12c-.25-1.52-6.54-28.81-7-30.32-.13-.42.29-.55,2.42-.75a32.21,32.21,0,0,0,9-2.28c.45-.23.94-.33,1-.23S121.83,76,125.12,83.66Zm-42.63-6c3.8.71,7.38,3.19,8.86,6.12,1.19,2.39,1.45,4.45,1.45,12.09v7.25H82.49V99.38c0-5.77-1.52-9.31-5.09-11.89C74.46,85.33,72.85,85,64,85H56.09l.33-1a21,21,0,0,0,.29-3.87V77.31H68.76C75.49,77.31,81.55,77.44,82.49,77.63Zm-10.28,13a8.29,8.29,0,0,1,4.35,3.7c.51,1,.64,2.26.77,7.86l.16,6.61,1.16,2.32,1.13,2.32H30.86l.23-2c.55-5.28,3.06-12.89,5.32-16.18a12.24,12.24,0,0,1,6.92-4.67C45,90.1,70.82,90.13,72.21,90.59ZM140.33,101a15.57,15.57,0,0,1,11.28,18.69A15.82,15.82,0,0,1,139,131.22a15.53,15.53,0,0,1-16.11-8.28,17.93,17.93,0,0,1-1.32-3.35l-.2-1h5.19l.78,1.7a10.12,10.12,0,0,0,5,5,11.12,11.12,0,0,0,8.57,0,11.76,11.76,0,0,0,5-5,12.21,12.21,0,0,0,.07-8.61,11.9,11.9,0,0,0-5-5,10.61,10.61,0,0,0-10,.7c-.58.39-.84.49-.68.2.42-.71,4.06-5.87,4.61-6.51S137.72,100.32,140.33,101ZM98,108.82c1.26.68,2.81,3.19,2.49,4-.2.49-.87.55-5.74.55-6.22,0-7.44-.23-9.31-1.87-1.13-.93-2.26-2.51-2.26-3.12a67.59,67.59,0,0,1,6.87-.17C96,108.24,97,108.31,98,108.82Zm41.51,2.87a5.33,5.33,0,0,1-.06,8.61,5.43,5.43,0,0,1-5.77-.23c-.65-.48-1.2-1-1.2-1.22a6,6,0,0,1,2.58-.29c2.35,0,2.68-.1,3.39-.81a2.37,2.37,0,0,0,0-3.54c-.71-.71-1-.81-3.39-.81a7,7,0,0,1-2.58-.26c0-.38.94-1.19,2.1-1.83A5.54,5.54,0,0,1,139.46,111.69Zm-92.07,8.48a10.28,10.28,0,0,0,18.63,0l.71-1.61H72l-.23,1a16.76,16.76,0,0,1-4,7,15.31,15.31,0,0,1-22.11,0,16.87,16.87,0,0,1-4-7l-.19-1h5.19Zm13.51-1.32c0,.51-1.65,1.61-2.94,2a4.29,4.29,0,0,1-2.51,0c-1.29-.42-2.93-1.52-2.93-2a15.12,15.12,0,0,1,4.19-.29A15.18,15.18,0,0,1,60.9,118.85ZM81.36.29A25.07,25.07,0,0,0,74.5,2.93a25.34,25.34,0,0,0-7.09,7.13A20.66,20.66,0,0,0,70,34.58c1.9,2.06,2,2.16,1.23,2.35a35.86,35.86,0,0,0-3.36,1.48c-4.86,2.42-9.5,8-12.27,14.89-.65,1.58-1.23,2.93-1.26,3A4.14,4.14,0,0,1,53,55.59a10.83,10.83,0,0,0-2.38-1.16c-1.9-.52-30.52-.39-32,.13-3.87,1.38-5.84,4.61-3.94,6.48a2.24,2.24,0,0,0,3.42,0c1.32-1.42,2.32-1.78,5.12-1.78h2.58v4.35c0,4.23,0,4.42.81,5.16l.77.81H42.24l.77-.81c.78-.74.81-.94.81-5.19V59.2l3.06.13c2.64.09,3.12.19,3.77.84l.74.74V83.4l-.74.74-.74.74-15,.1-15,.09-.94-1a3.43,3.43,0,0,1-1-1.29c0-.23,1.09-.36,3.06-.36,2.83,0,3.16-.06,3.87-.8a2.37,2.37,0,0,0,0-3.55c-.71-.74-1-.8-3.87-.8H18V72.15h1.77c2.16,0,3.38-.93,3.38-2.57a2.54,2.54,0,0,0-.8-1.78l-.78-.8H6.73L6,67.8a2.38,2.38,0,0,0,0,3.55c.71.74,1,.8,3.87.8h3.06v5.16H7.24c-5.57,0-5.67,0-6.44.8a2.36,2.36,0,0,0,0,3.55c.77.8.87.8,6.35.8h5.6l.39,1.45a8.32,8.32,0,0,0,5.51,5.9c.71.26,3.61.39,8.15.39h7.09L32.7,91.58c-3.32,3.84-6.35,13.47-6.8,21.56-.23,3.71-.23,3.74.61,4.58s.94.84,5.29.84h4.44l.52,2.22a20.74,20.74,0,0,0,15,15,26.23,26.23,0,0,0,10,0,20.72,20.72,0,0,0,14.92-15l.55-2.28h39l.42,2c1.87,9.06,10.57,16,20,16a20.59,20.59,0,0,0,9.35-39,22,22,0,0,0-8.73-2.29h-1.49l-4.57-10.66c-2.52-5.9-4.51-10.73-4.48-10.8a10.7,10.7,0,0,1,1.87.39c2.58.68,3.77.58,4.67-.36l.81-.77V50.53l-.84-.84c-.78-.77-1-.8-2.93-.64a13.28,13.28,0,0,0-10.22,7l-.74,1.58-.94-1a10.59,10.59,0,0,0-2.54-1.83c-1.58-.84-1.74-.87-6.7-.78-6,.1-7.32-.29-9.67-2.8a38.69,38.69,0,0,1-4.42-6c0-.1.33-.2.75-.2a7.64,7.64,0,0,0,2.51-.9,8.62,8.62,0,0,0,4.22-5A5,5,0,0,1,104,36.93c2.55-2.19,2.93-4.9,1.1-7.8a12.53,12.53,0,0,1-1.33-2.74c-.41-1.48-.41-3.22,0-3.22a2.56,2.56,0,0,0,1.13-.8c1-.94,1.07-2.65.32-6.13A20.79,20.79,0,0,0,84.9,0,29.45,29.45,0,0,0,81.36.29Z"/><polygon points="38.66 61.84 38.66 64.42 34.79 64.42 30.93 64.42 30.93 61.84 30.93 59.26 34.79 59.26 38.66 59.26 38.66 61.84" fill="#0057b8"/></g></g></svg>