<svg width="45" height="40" viewBox="0 0 45 40" fill="none" xmlns="http://www.w3.org/2000/svg">
<g clip-path="url(#clip0_1086_1828)">
<path d="M41.0716 17.5908C41.2144 17.7342 41.643 17.5908 41.9287 17.304C42.1051 17.1406 42.2504 16.9462 42.3572 16.7304C42.7342 16.3362 43.0693 15.9037 43.3572 15.4399C43.9674 14.7143 44.4504 13.89 44.7857 13.0021C45.0709 12.1655 45.0709 11.2576 44.7857 10.421C44.4641 9.64484 44.031 8.92016 43.5001 8.27007C41.0716 5.40214 36.3575 -0.907306 32.3577 1.10025C31.3578 1.53044 28.5008 2.9644 28.5008 4.39836V4.82855C28.4915 4.9064 28.4994 4.98535 28.5241 5.05974C28.5488 5.13412 28.5896 5.20209 28.6436 5.25874C28.6436 5.54554 28.7865 5.54554 29.0722 5.68893C29.3579 5.83233 29.3579 5.83233 29.3579 5.97573V6.11912C28.7072 7.35965 27.746 8.4087 26.5687 9.16301C25.3915 9.91732 24.0388 10.3509 22.6439 10.421C19.9298 10.1342 18.2156 7.83988 16.3585 5.83233C16.6789 5.52916 16.9662 5.19268 17.2156 4.82855C17.2156 4.54176 17.2156 4.39836 17.0728 4.25497C16.4472 3.61745 15.7238 3.08489 14.93 2.6776C13.8592 1.73501 12.5893 1.0486 11.2159 0.670056C9.64462 0.526659 8.93037 2.24741 7.93042 3.10779L8.93037 2.24742C9.21607 1.96062 9.64462 1.67383 9.93032 1.38704C10.3015 1.2229 10.7101 1.16289 11.1126 1.21339C11.5151 1.26389 11.8964 1.42302 12.2159 1.67383C12.6444 2.10402 13.3587 2.53421 13.9301 3.10779C10.216 6.9795 6.50192 10.7078 2.78782 14.5795C2.29912 13.8834 1.77463 13.2133 1.21647 12.5719C0.987717 12.1829 0.887694 11.7311 0.930775 11.2814L1.35932 9.99083C1.65586 9.62125 1.9911 9.28473 2.35927 8.98705C3.07352 8.12668 3.78777 7.40969 4.50202 6.54931C4.64487 6.40592 5.64482 5.25874 5.64482 5.25874C4.78772 5.97573 3.78777 6.69271 2.93067 7.40969C2.50212 7.83988 2.07357 8.12668 1.64502 8.55686C1.18146 8.95041 0.75142 9.3821 0.359375 9.84743C0.542559 10.4508 0.591327 11.0872 0.502225 11.7115C0.359375 12.4285 1.07362 13.2889 1.50217 13.8625C2.29363 15.1782 3.25422 16.3835 4.35917 17.4474C4.78772 17.5908 4.78772 17.4474 4.93057 17.304C5.44148 16.9142 5.91929 16.4826 6.35907 16.0134C6.35907 16.1568 6.35907 16.3002 6.50192 16.3002C6.87009 16.5979 7.20533 16.9344 7.50187 17.304C6.48922 18.2203 5.749 19.4001 5.36319 20.7127C4.97739 22.0253 4.96106 23.4195 5.31603 24.7409C5.67099 26.0622 6.38338 27.2592 7.3743 28.1991C8.36522 29.1391 9.59598 29.7853 10.9302 30.0663C11.6445 32.0739 12.6444 33.7946 14.6443 34.3682V36.806C14.623 37.0081 14.6736 37.2113 14.7872 37.3795C14.8296 37.6458 14.9459 37.8946 15.1227 38.0975C15.2996 38.3005 15.5299 38.4492 15.7871 38.5267C16.9299 38.9569 17.3585 38.3833 17.6442 37.5229C17.9223 37.3472 18.2441 37.254 18.5727 37.254C18.9013 37.254 19.2232 37.3472 19.5012 37.5229C19.9298 38.5267 20.644 39.2437 21.7868 38.5267C22.0255 38.2753 22.2189 37.9842 22.3582 37.6663C22.9097 37.4518 23.521 37.4518 24.0724 37.6663C24.1119 38.0079 24.2842 38.32 24.5516 38.5348C24.8191 38.7497 25.1603 38.8498 25.5009 38.8135C26.358 38.8135 26.6437 38.2399 26.9294 37.6663C27.193 37.5245 27.4875 37.4503 27.7865 37.4503C28.0856 37.4503 28.3801 37.5245 28.6436 37.6663C28.7104 37.9951 28.89 38.29 29.151 38.4996C29.412 38.7092 29.738 38.8203 30.0721 38.8135C30.9292 38.8135 31.3578 38.0965 31.6435 37.3795C31.621 37.0854 31.67 36.7901 31.7863 36.5192V31.5003C32.0794 31.5229 32.3735 31.4737 32.6434 31.3569C36.3575 30.4965 41.0716 29.3493 42.3572 25.1908C42.7262 23.8118 42.7632 22.3644 42.4651 20.9681C42.1671 19.5719 41.5425 18.2668 40.643 17.1606C40.7859 17.4474 40.643 17.4474 41.0716 17.5908ZM33.2148 2.24742C36.0718 1.38704 37.786 3.96817 39.5002 5.83233C40.643 6.9795 43.2143 8.70026 43.9286 10.2776C44.0595 11.7644 43.762 13.2576 43.0715 14.5795L31.6435 3.10779C32.0813 2.68526 32.6239 2.38817 33.2148 2.24742ZM30.6435 3.53798L42.3572 15.2965C41.643 16.1568 40.7859 16.3002 39.9288 15.1531C36.7861 11.9983 33.5005 8.84366 30.3578 5.54554C29.6436 4.82855 29.9293 4.11157 30.6435 3.53798ZM37.0718 13.8625L36.0718 14.8663C35.6433 15.2965 35.0719 16.1568 34.3576 15.8701C33.072 15.4399 34.2148 14.7229 34.6433 14.2927L36.0718 12.8587C36.44 13.1564 36.7753 13.4929 37.0718 13.8625ZM33.2148 9.99083L32.2149 10.9946C31.6435 11.5682 31.3578 11.9983 30.6435 11.9983C29.9293 11.9983 29.5007 11.5682 29.7864 11.138C30.0721 10.7078 30.215 10.7078 30.3578 10.5644C30.9168 10.0751 31.4418 9.54811 31.9292 8.98705C32.4157 9.23926 32.8516 9.57957 33.2148 9.99083ZM30.215 6.9795L31.3578 8.12667C30.0721 9.27385 28.2151 10.8512 29.5007 12.7153C30.0721 13.7191 31.2149 13.4323 31.9292 12.7153L33.9291 10.7078L35.3576 12.1417C34.0719 13.2889 32.5006 14.5795 33.3577 16.3002C33.5061 16.624 33.7503 16.8941 34.057 17.0737C34.3637 17.2533 34.7181 17.3337 35.0719 17.304C35.5004 17.1606 35.6433 16.8738 35.929 16.587C36.5004 15.8701 37.2146 15.2965 37.786 14.5795L38.9288 15.7267C37.9289 16.7304 36.9289 17.5908 36.0718 18.5946L35.929 18.738C35.4696 19.2017 35.0842 19.7338 34.7862 20.3153L25.6438 11.138C27.5008 10.2776 28.6436 8.55686 30.215 6.9795ZM35.7861 26.1946C35.7084 25.7453 35.5639 25.3103 35.3576 24.904C35.1083 24.3722 34.7701 23.8873 34.3576 23.4701C34.6888 22.2307 35.3278 21.096 36.2147 20.1719C36.7446 20.4969 37.1753 20.962 37.4596 21.5162C37.7439 22.0704 37.8709 22.6924 37.8267 23.3142C37.7824 23.936 37.5687 24.5336 37.2088 25.0416C36.8489 25.5497 36.3567 25.9485 35.7861 26.1946ZM23.3582 11.8549C23.8456 11.8289 24.3268 11.7323 24.7867 11.5682C24.7867 11.587 24.7904 11.6056 24.7976 11.623C24.8047 11.6404 24.8153 11.6562 24.8285 11.6696C24.8418 11.6829 24.8575 11.6934 24.8749 11.7006C24.8922 11.7078 24.9108 11.7115 24.9295 11.7115L34.5005 21.3191C34.2928 21.7751 34.1486 22.2576 34.0719 22.7531C32.3304 21.4135 30.5184 20.1689 28.6436 19.0248C26.0723 17.1606 23.7867 14.7229 20.9297 17.1606C18.3584 19.3116 16.2157 21.8927 13.9301 24.1871C13.7872 24.3304 13.6444 24.3305 13.3587 24.4738C13.2448 23.3191 12.905 22.1984 12.3587 21.1757L21.644 11.8549C21.644 11.8361 21.6477 11.8175 21.6549 11.8001C21.662 11.7827 21.6726 11.7669 21.6858 11.7535C21.6991 11.7402 21.7148 11.7297 21.7322 11.7225C21.7495 11.7153 21.7681 11.7115 21.7868 11.7115C22.0725 11.7115 22.6439 11.8549 23.3582 11.8549ZM22.9296 30.4965C24.3581 29.2059 25.6438 27.9154 27.0723 26.6248C26.9685 28.0796 27.4292 29.5183 28.3579 30.6399C26.5009 30.6399 24.6438 30.4965 22.9296 30.4965ZM27.5008 24.6172C25.5009 26.4814 23.501 28.489 21.3583 30.3531H21.2154C21.376 29.5374 21.3701 28.6976 21.1983 27.8843C21.0264 27.0709 20.6921 26.301 20.2155 25.621C19.6771 24.9344 18.9782 24.3919 18.1807 24.0417C17.3833 23.6915 16.512 23.5444 15.6443 23.6135L17.787 21.4625C18.3936 20.8747 18.966 20.2523 19.5012 19.5984C19.7869 21.7493 21.0726 23.7569 23.501 23.6135C25.6438 23.4701 26.358 21.0323 26.5009 19.0248C27.9921 20.0395 29.423 21.1408 30.7864 22.3229C30.0941 22.4081 29.433 22.6616 28.8604 23.0614C28.2878 23.4612 27.8212 23.9953 27.5008 24.6172ZM11.9302 26.4814C10.9118 26.3518 9.96112 25.8997 9.21607 25.1908C8.78683 24.8024 8.49794 24.282 8.39455 23.7113C8.29117 23.1405 8.37913 22.5514 8.64467 22.0361C9.0534 21.3665 9.58692 20.7822 10.216 20.3153C10.5842 20.613 10.9194 20.9495 11.2159 21.3191C11.3588 21.6059 11.5016 22.0361 11.6445 22.3229C12.1884 23.2434 12.5294 24.2702 12.6444 25.3342C12.3258 25.6597 12.082 26.0513 11.9302 26.4814ZM20.2155 18.8814C20.639 18.3769 21.1782 17.9832 21.7868 17.7342C22.4954 17.5332 23.2418 17.5064 23.9629 17.6562C24.684 17.8059 25.3585 18.1278 25.9295 18.5946C25.9295 20.1719 25.3581 22.0361 23.6439 22.1795C23.197 22.2141 22.748 22.1536 22.326 22.002C21.904 21.8505 21.5186 21.6112 21.1951 21.2999C20.8715 20.9887 20.617 20.6123 20.4482 20.1956C20.2794 19.7788 20.2001 19.331 20.2155 18.8814ZM15.93 6.69271C17.2322 8.38799 18.7719 9.88526 20.5012 11.138C17.5013 14.1493 14.5015 17.1606 11.6445 20.1719C11.5016 20.0286 11.3588 19.8852 11.3588 19.7418C10.0383 18.2476 8.60564 16.8574 7.07332 15.5833C7.4894 15.2379 7.87203 14.8538 8.21612 14.4361C9.07322 15.4399 11.5016 18.738 12.7873 16.587C13.9301 14.7229 11.9302 13.1455 10.6445 11.8549L11.0731 11.4248L12.073 10.421C12.073 10.5644 12.073 10.5644 12.2159 10.5644C12.894 11.2714 13.6093 11.9416 14.3586 12.5719L14.93 13.1455C15.254 13.2507 15.6047 13.2362 15.919 13.1048C16.2333 12.9733 16.4905 12.7335 16.6442 12.4285C17.787 10.5644 15.7871 8.98705 14.3586 7.69648C14.9219 7.42874 15.4498 7.09154 15.93 6.69271ZM10.0731 12.5719C10.5606 13.133 11.0856 13.66 11.6445 14.1493C11.9236 14.3991 12.1643 14.689 12.3587 15.0097C12.3966 15.0097 12.433 15.0248 12.4598 15.0517C12.4865 15.0786 12.5016 15.115 12.5016 15.1531C12.6444 15.5833 12.2159 15.8701 11.7873 16.0134C11.0731 16.0134 10.6445 15.4399 10.216 15.0097C9.87194 14.592 9.4893 14.2079 9.07322 13.8625C9.33424 13.3805 9.67202 12.9445 10.0731 12.5719ZM13.9301 8.55686C14.4921 9.09409 15.0171 9.66899 15.5014 10.2776C15.7871 10.5644 16.2157 10.8512 16.3585 11.138C16.5014 11.4248 15.93 11.9983 15.5014 11.9983C15.0729 11.9983 14.5015 11.2814 14.0729 10.8512C13.6569 10.5058 13.2742 10.1217 12.9301 9.70404C13.2158 9.27385 13.6444 8.98705 13.9301 8.55686ZM4.64487 16.587C4.35917 16.1568 4.21632 15.87 3.93062 15.4399L15.0729 3.82478V3.68138C15.2157 3.82478 15.5014 3.96817 15.6443 4.11157C15.7871 4.25497 16.0728 4.39836 16.3585 4.68516C12.5016 8.41347 8.64467 12.2851 4.93057 16.1568C4.93057 16.3002 4.78772 16.4436 4.64487 16.587ZM9.21607 28.3456C8.38504 27.9362 7.6536 27.3488 7.07332 26.6248C6.5969 25.9874 6.25187 25.261 6.05843 24.4881C5.86499 23.7153 5.82701 22.9114 5.94672 22.1237C6.06643 21.3359 6.34143 20.58 6.75562 19.9002C7.16982 19.2203 7.71489 18.6302 8.35897 18.1644L9.50177 19.3116C8.69768 19.9667 8.12473 20.864 7.86751 21.871C7.61029 22.878 7.68243 23.9413 8.07327 24.904C8.34857 25.5731 8.77627 26.1681 9.32204 26.6412C9.86782 27.1144 10.5164 27.4526 11.2159 27.6286C11.2159 27.772 11.0731 27.9154 11.0731 28.0588C11.0731 28.2022 11.0731 28.9191 10.7874 28.9191C10.5017 28.9191 9.50177 28.4889 9.21607 28.3456ZM11.5016 29.4927C11.5016 29.3493 11.5016 29.3493 11.6445 29.2059C11.9735 27.9234 12.6112 26.7417 13.5015 25.7644C16.9299 23.6135 21.9297 26.6248 20.644 30.7833C18.0727 34.9418 13.2158 33.6512 11.5016 29.4927ZM15.6443 37.3795L15.2157 36.9493V34.7984H15.5014C16.0752 34.9078 16.6678 34.8583 17.2156 34.655C17.3585 36.089 17.3585 38.3833 15.6443 37.3795ZM17.9299 36.2324V34.3682C18.4655 34.067 18.9481 33.6794 19.3584 33.221V36.2324C18.893 36.0886 18.3953 36.0886 17.9299 36.2324ZM19.7869 36.6626V32.5041C20.1112 32.1842 20.5012 31.9395 20.9297 31.7871C21.2408 31.6259 21.5807 31.5284 21.9297 31.5003C22.0728 33.1702 22.0728 34.8493 21.9297 36.5192C21.644 37.8097 20.0726 37.9531 19.7869 36.6626ZM22.5011 36.2324V31.5003C22.9296 31.5003 23.3582 31.3569 23.7867 31.3569V36.2324H22.5011ZM25.5009 37.5229C24.0724 37.5229 24.501 35.8022 24.501 34.9418V31.5003C25.2182 31.4766 25.936 31.5246 26.6437 31.6437V34.9418C26.5009 35.6588 26.9294 37.5229 25.5009 37.5229ZM27.0723 36.3758V31.6437C27.5008 31.6437 27.9294 31.7871 28.3579 31.7871V36.3758C28.0722 36.089 27.5008 36.2324 27.0723 36.3758ZM30.0721 37.5229C28.6436 37.5229 29.0722 35.6588 29.0722 34.7984V31.6437H31.0721V34.5116C31.0721 35.6588 31.5006 37.5229 30.0721 37.5229ZM30.7864 30.3531C30.1866 30.3197 29.6059 30.1294 29.1021 29.801C28.5982 29.4726 28.1888 29.0176 27.9144 28.4812C27.64 27.9448 27.5101 27.3456 27.5378 26.7432C27.5655 26.1408 27.7498 25.5562 28.0722 25.0474C28.5773 24.3845 29.2719 23.892 30.0632 23.6358C30.8545 23.3796 31.7048 23.3718 32.5006 23.6135C34.6433 25.621 36.6432 28.3456 32.7863 29.9229C32.1607 30.2166 31.4769 30.3637 30.7864 30.3531ZM36.6432 28.9191L35.3576 29.3493C35.6318 28.757 35.824 28.1298 35.929 27.4852C39.0717 26.1946 39.5002 21.4625 37.0718 19.1682C37.4879 18.8228 37.8705 18.4387 38.2146 18.021C38.5102 17.6506 38.8455 17.314 39.2145 17.0172C43.2143 21.6059 42.0715 27.1984 36.6432 28.9191Z" fill="#010101"/>
</g>
<defs>
<clipPath id="clip0_1086_1828">
<rect width="45" height="39" fill="white" transform="translate(0 0.589844)"/>
</clipPath>
</defs>
</svg>
